<svg xmlns="http://www.w3.org/2000/svg" width="512" height="512" fill-rule="evenodd" clip-rule="evenodd" image-rendering="optimizeQuality" shape-rendering="geometricPrecision" text-rendering="geometricPrecision" viewBox="0 0 512 512"><path d="M510.08 93.21c-16.27,7.36 -34.17,11.82 -51.72,14.77 15.44,-2.59 38.33,-39.48 42.75,-53.95 1.32,-2.65 -0.59,-3.59 -2.85,-2.46 -19.59,10.5 -39.86,18.11 -61.43,23.5 -4.05,1.01 -6.48,-4.02 -9.61,-6.61 -76.55,-65.14 -190.47,0.18 -175.6,101.08 0.33,2.47 0.12,2.8 -2.11,2.47 -84.38,-12.57 -154.32,-42.75 -211.1,-107.46 -2.46,-2.81 -3.8,-2.8 -5.82,0.22 -29.89,44.8 -8.32,107.07 31.22,137.89 -1.68,0.34 -22.33,-1.9 -40.74,-11.41 -2.46,-1.56 -3.7,-0.66 -3.91,2.13 -2.5,43.84 37.45,95.06 80.91,102.52 -8.16,1.79 -16.56,3.07 -39.95,1.24 -2.91,-0.56 -4.03,0.89 -2.91,3.69 17.58,47.91 55.52,62.17 83.94,70.29 3.8,0.67 7.61,0.67 11.43,1.56 -20.77,30.87 -110.53,45.6 -145.07,42.2 -2.39,-0.35 -11.4,-1.61 -5.59,3.13 205.11,135.22 460.55,-9.49 460.55,-266.71 0,-3.32 3.91,-5.14 6.24,-6.89 10.68,-8.03 43.29,-37.45 43.29,-51.2 0,-1.36 0.16,-0.94 -1.92,0z"/></svg>